<mxfile host="app.diagrams.net" modified="2023-07-10T06:50:55.154Z" agent="Mozilla/5.0 (Windows NT 10.0; Win64; x64) AppleWebKit/537.36 (KHTML, like Gecko) Chrome/114.0.0.0 Safari/537.36" version="21.6.1" etag="ExX5e4qOEMxi3m5x0c5A" type="github">
  <diagram name="Page-1" id="EpB5jguZ--JnqEKazNNz">
    <mxGraphModel>
      <root>
        <mxCell id="0" />
        <mxCell id="1" parent="0" />
      </root>
    </mxGraphModel>
  </diagram>
</mxfile>
